<?xml version="1.0" encoding="utf-8"?>
<!-- Generator: Adobe Illustrator 23.0.3, SVG Export Plug-In . SVG Version: 6.00 Build 0)  -->
<svg version="1.1" xmlns="http://www.w3.org/2000/svg" xmlns:xlink="http://www.w3.org/1999/xlink" x="0px" y="0px"
	 viewBox="0 0 343.6 192" style="enable-background:new 0 0 343.6 192;" xml:space="preserve">
<style type="text/css">
	.st0{fill:#FFFFFF;stroke:#231815;stroke-miterlimit:10;}
	.st1{fill:#BBBCBC;stroke:#231815;stroke-miterlimit:10;}
	.st2{fill:#231815;}
	.st3{font-family:'HappyZcool-2016';}
	.st4{font-size:18.3856px;}
	.st5{font-size:17.7135px;}
</style>
<g id="レイヤー_1">
	<title>gamepad</title>
	<circle class="st0" cx="209.8" cy="166.8" r="24.8"/>
	<circle class="st1" cx="133.3" cy="166.8" r="24.8"/>
	<polygon class="st1" points="32,146.5 36.5,151 63.5,151 68,146.5 68,128.5 54.5,110.5 45.5,110.5 32,128.5 	"/>
	<polygon class="st1" points="5,119.5 0.5,115 0.5,88 5,83.5 23,83.5 41,97 41,106 23,119.5 	"/>
	<polygon class="st1" points="95,119.5 99.5,115 99.5,88 95,83.5 77,83.5 59,97 59,106 77,119.5 	"/>
	<circle class="st0" cx="324.5" cy="101.5" r="18"/>
	<polygon class="st1" points="32,56.5 36.5,52 63.5,52 68,56.5 68,74.5 54.5,92.5 45.5,92.5 32,74.5 	"/>
	<circle class="st0" cx="293" cy="70" r="18"/>
	<circle class="st0" cx="293" cy="133" r="18"/>
	<circle class="st1" cx="261.5" cy="101.5" r="18"/>
	<circle class="st1" cx="133.3" cy="166.8" r="20.3"/>
	<circle class="st0" cx="209.8" cy="166.8" r="20.3"/>
	<polygon class="st1" points="262.1,22.2 266.6,17.7 338.6,17.7 343.1,22.2 343.1,40.2 338.6,44.7 325.1,44.7 320.6,40.2 
		266.6,40.2 262.1,35.7 	"/>
	<polygon class="st0" points="82.1,22.5 77.6,18 5.6,18 1.1,22.5 1.1,40.5 5.6,45 19.1,45 23.6,40.5 77.6,40.5 82.1,36 	"/>
</g>
<g id="图层_2">
	<text transform="matrix(1 0 0 1 76.0843 144.4099)" class="st2 st3 st4">移动</text>
	<text transform="matrix(1 0 0 1 206.6101 85.3948)" class="st2 st3 st4">射击</text>
	<text transform="matrix(1 0 0 1 267.1641 14.3755)" class="st2 st3 st5">低速移动</text>
</g>
</svg>
