<svg id="レイヤー_1" data-name="レイヤー 1" xmlns="http://www.w3.org/2000/svg" viewBox="0 0 343.64 192"><defs><style>.cls-1{fill:#fff;}.cls-1,.cls-2{stroke:#231815;stroke-miterlimit:10;}.cls-2{fill:#bbbcbc;}.cls-3{fill:#231815;}</style></defs><title>gamepad</title><circle class="cls-1" cx="209.75" cy="166.75" r="24.75"/><circle class="cls-2" cx="133.25" cy="166.75" r="24.75"/><polygon class="cls-2" points="32 146.5 36.5 151 63.5 151 68 146.5 68 128.5 54.5 110.5 45.5 110.5 32 128.5 32 146.5"/><polygon class="cls-2" points="5 119.5 0.5 115 0.5 88 5 83.5 23 83.5 41 97 41 106 23 119.5 5 119.5"/><polygon class="cls-2" points="95 119.5 99.5 115 99.5 88 95 83.5 77 83.5 59 97 59 106 77 119.5 95 119.5"/><circle class="cls-1" cx="324.5" cy="101.5" r="18"/><polygon class="cls-2" points="32 56.5 36.5 52 63.5 52 68 56.5 68 74.5 54.5 92.5 45.5 92.5 32 74.5 32 56.5"/><circle class="cls-1" cx="293" cy="70" r="18"/><circle class="cls-1" cx="293" cy="133" r="18"/><circle class="cls-2" cx="261.5" cy="101.5" r="18"/><circle class="cls-2" cx="133.25" cy="166.75" r="20.25"/><circle class="cls-1" cx="209.75" cy="166.75" r="20.25"/><polygon class="cls-2" points="262.14 22.2 266.64 17.7 338.64 17.7 343.14 22.2 343.14 40.2 338.64 44.7 325.14 44.7 320.64 40.2 266.64 40.2 262.14 35.7 262.14 22.2"/><polygon class="cls-1" points="82.14 22.5 77.64 18 5.64 18 1.14 22.5 1.14 40.5 5.64 45 19.14 45 23.64 40.5 77.64 40.5 82.14 36 82.14 22.5"/><path class="cls-3" d="M147.46,434c-.6,0-1.29-.08-2.06-.14-.2,0-.51,0-.91-.07a.48.48,0,0,1-.49-.53c0-.38.17-.56.52-.54h.06l2.88.2-.09-3.15c-.56,0-1.37-.12-2.45-.27a.51.51,0,0,1-.47-.54c0-.36.17-.54.52-.54a44.17,44.17,0,0,1,4.5.54l1.5.25a.52.52,0,0,1,.43.53c0,.37-.18.55-.52.55a7.6,7.6,0,0,1-1.17-.16l-1.26-.21.09,3.06c.84,0,1.63.05,2.39.05a.54.54,0,1,1,0,1.08c-.73,0-1.5,0-2.3-.05a17.23,17.23,0,0,1,2.61,3.38.65.65,0,0,1,.1.32.51.51,0,0,1-.17.4.52.52,0,0,1-.38.16.6.6,0,0,1-.44-.23c-.06-.07-.24-.34-.55-.79s-.65-.93-1.19-1.66l.18,5.67a.54.54,0,0,1-1.08,0l-.18-5.66a24.63,24.63,0,0,0-1.37,2.36l-.5,1a.55.55,0,0,1-.47.31.62.62,0,0,1-.41-.16.48.48,0,0,1-.17-.37.63.63,0,0,1,.07-.25A19.55,19.55,0,0,1,147.46,434Zm7.39-1.35-2.34-1.44c-.24.24-.61.58-1.11,1a.53.53,0,0,1-.36.16.53.53,0,0,1-.36-.95c.3-.29.75-.72,1.37-1.28s1.18-1.11,1.45-1.35a12.58,12.58,0,0,1,1.59-1.19.55.55,0,0,1,.3-.09.48.48,0,0,1,.37.17.59.59,0,0,1,.16.39.51.51,0,0,1-.2.41c2.06.65,3.09,1.23,3.09,1.73a.45.45,0,0,1-.14.31,31,31,0,0,1-3.67,3.36l-1.62,1.32-.81.68a.54.54,0,0,1-.34.14.51.51,0,0,1-.4-.17.52.52,0,0,1-.16-.38.53.53,0,0,1,.2-.4c.06-.07.37-.34.95-.81S154,433.34,154.85,432.61Zm1.8,1.82c.62.31,1.47.8,2.58,1.46a.53.53,0,0,1,.25.45.61.61,0,0,1-.14.36,27.79,27.79,0,0,1-2.07,2.21,32.52,32.52,0,0,1-3.62,3.13.51.51,0,0,1-.72,0,.57.57,0,0,1-.16-.41.57.57,0,0,1,.21-.41l.87-.67c.58-.49,1.16-1,1.72-1.49q-1.44-.84-2.34-1.44c-.52.55-.87.83-1,.83a.54.54,0,0,1-.39-.17.57.57,0,0,1-.17-.39.56.56,0,0,1,.16-.38l.7-.7c.26-.28.63-.68,1.14-1.21a18.27,18.27,0,0,1,2.61-2.19.59.59,0,0,1,.32-.11.52.52,0,0,1,.38.17.53.53,0,0,1,.16.39C157.12,434,157,434.2,156.65,434.43Zm-3.33-4,2.42,1.47c.63-.55,1.18-1.08,1.65-1.58-.23-.11-1.15-.45-2.77-1C154.25,429.56,153.82,429.94,153.32,430.4Zm3.06,7.85q.88-.87,1.71-1.77c-.8-.49-1.59-.93-2.37-1.33a17.64,17.64,0,0,0-1.73,1.62C154.67,437.21,155.47,437.71,156.38,438.25Z" transform="translate(-66.36 -297)"/><path class="cls-3" d="M167.26,440.06l0-.91-3,.16c-.35,0-.53-.17-.53-.54a.48.48,0,0,1,.51-.54l2.93-.16,0-.47q-3.42-.27-3.42-2.61,0-2.85,3.26-2.92l0-.48-4.21-.2a.49.49,0,0,1-.5-.54c0-.39.18-.57.56-.54l4.14.2-.06-1.52-2.09-.27-1-.1a.51.51,0,0,1-.48-.54c0-.38.17-.56.52-.54H164q.81,0,4.5.57c.85.12,1.57.24,2.16.34l.79.15c.33.09.49.27.49.52s-.17.56-.52.56a12.15,12.15,0,0,1-1.62-.24l-1.73-.3,0,1.4,4.33.22a.48.48,0,0,1,.53.54c0,.37-.2.55-.58.54l-4.25-.2v.47c2.4.23,3.6,1.23,3.6,3,0,1.63-1.14,2.46-3.44,2.49l0,.39,2.9-.16q.54,0,.54.54a.47.47,0,0,1-.5.54l-2.92.16,0,.85,1.76-.31a10.62,10.62,0,0,1,1.73-.2c.36,0,.54.2.54.58a.5.5,0,0,1-.45.5l-1,.15a58.58,58.58,0,0,1-7.6.77.54.54,0,1,1,0-1.08A35,35,0,0,0,167.26,440.06Zm-.11-3.54,0-1.15-2.27-.18C165,436,165.73,436.4,167.15,436.52Zm-.06-2.25,0-1.12c-1.11,0-1.79.34-2.05,1Zm1-1.08,0,1.17,2.36.2C170.27,433.79,169.47,433.33,168.14,433.19Zm.07,2.25,0,1.1c1.33,0,2.1-.32,2.32-.9ZM174.4,432c1.5.08,2.46.36,2.86.82A4.83,4.83,0,0,1,178,436a27.75,27.75,0,0,1-.29,3.49c0,.31-.1.79-.2,1.42a.54.54,0,0,1-1.08-.07,17.82,17.82,0,0,1,.25-2.34A19,19,0,0,0,177,436a4,4,0,0,0-.51-2.47c-.2-.24-.92-.39-2.16-.46-.21,2.13-.39,4.05-.52,5.74,0,.59-.1,1.45-.2,2.59a.48.48,0,0,1-.54.5c-.37,0-.55-.17-.54-.52v0c0-1.18.28-3.94.72-8.3.1,0-.52,0-1.87,0a.49.49,0,0,1-.54-.56c0-.35.18-.52.54-.52l2,0,.25-2.41c0-.25.06-.63.13-1.12a.5.5,0,0,1,.52-.47c.39,0,.57.18.56.53l0,.07Z" transform="translate(-66.36 -297)"/><path class="cls-3" d="M256,376.72c0,.37-.18.56-.52.56l-.15,0L249.53,376a.48.48,0,0,1-.43-.51c0-.37.18-.55.52-.55h.15l5.78,1.32A.48.48,0,0,1,256,376.72Zm.65-2.73a.57.57,0,0,1-.16.38.45.45,0,0,1-.37.17.71.71,0,0,1-.27-.05l-6.35-3.22a.49.49,0,0,1-.31-.45.62.62,0,0,1,.16-.41.48.48,0,0,1,.37-.17.77.77,0,0,1,.27.07l6.35,3.21A.49.49,0,0,1,256.63,374Zm4.26,2.34a.51.51,0,0,1,.4.17.52.52,0,0,1,.16.38.57.57,0,0,1-.25.44,45.66,45.66,0,0,1-4.93,2.84q-4.23,2.25-4.85,2.25c-.34,0-.52-.19-.52-.56a.56.56,0,0,1,.38-.5c.14-.06.37-.15.67-.25a64,64,0,0,0,8.64-4.67A.54.54,0,0,1,260.89,376.33Z" transform="translate(-66.36 -297)"/><path class="cls-3" d="M276.3,377.19a6.08,6.08,0,0,0-.43-2c-.35-.26-2-.44-5-.52-.32,0-.74,0-1.26,0-.35-.06-.52-.24-.52-.54s.18-.54.56-.54c3.92,0,6.21.26,6.85.78.4.32.7,1.36.9,3.11a32.07,32.07,0,0,1,.2,3.71c0,.31-.17.49-.52.54a4.79,4.79,0,0,1-.63,0c-.48,0-1,0-1.66,0l-2.48,0-2.48,0a.54.54,0,1,1,0-1.08l2.48,0,2.48,0q1,0,1.71,0c0-.78-.07-1.57-.14-2.36l-6.3-.34a3.76,3.76,0,0,1-.74-.06.54.54,0,0,1,.11-1.06l0,0Z" transform="translate(-66.36 -297)"/><path class="cls-3" d="M288.58,378.86c0,.35-.19.53-.56.53a.53.53,0,0,1-.51-.4q-.15-.51-.63-2.52a20,20,0,0,1-.46-2.43c0-.35.18-.52.54-.52a.5.5,0,0,1,.52.46l.27,1.36q.28,1.35.81,3.36A1.15,1.15,0,0,1,288.58,378.86Zm3.11-.16c0,.35-.16.52-.54.52a.51.51,0,0,1-.54-.48c-.13-.77-.27-1.54-.41-2.32a16.28,16.28,0,0,1-.31-2.18c0-.34.19-.51.56-.51a.48.48,0,0,1,.5.42c0,.12.14.68.31,1.69.13.61.27,1.54.43,2.79Zm.59,3.8a.56.56,0,0,1-.39-.16.49.49,0,0,1-.07-.69,39.92,39.92,0,0,0,2.19-4.32c.24-.55.48-1.12.7-1.71.09-.22.21-.55.38-1a.52.52,0,0,1,.49-.36c.37,0,.56.18.56.53a.78.78,0,0,1,0,.21,44.13,44.13,0,0,1-2.32,5.37c-.23.45-.58,1.07-1.06,1.85A.53.53,0,0,1,292.28,382.5Z" transform="translate(-66.36 -297)"/><path class="cls-3" d="M308.47,374.56c.8.19,2.15.6,4,1.21l1.49.48.63.2a.52.52,0,0,1,.36.49c0,.37-.17.56-.52.56l-.2,0-1.64-.54c-.91-.29-2.28-.7-4.12-1.24l.31,6.21a.48.48,0,0,1-.54.57.48.48,0,0,1-.54-.52l-.6-11.74a.47.47,0,0,1,.54-.55c.35,0,.53.16.54.5Z" transform="translate(-66.36 -297)"/><path class="cls-3" d="M337.89,311c0,.35-.18.52-.54.52a.51.51,0,0,1-.52-.47s0-.27-.09-.68c-.1-.91-.26-3.13-.5-6.64-.45.87-.83,1.65-1.14,2.32-.09.24-.25.59-.47,1a.51.51,0,0,1-.48.35c-.38,0-.56-.18-.56-.53a21.87,21.87,0,0,1,2-4.24q1.91-3.58,2.48-4.36a.52.52,0,0,1,.43-.25.6.6,0,0,1,.4.15.47.47,0,0,1,.18.37.58.58,0,0,1-.11.31l-.58.93c-.38.64-.79,1.36-1.24,2.18a.3.3,0,0,1,.06.2C337.66,307.15,337.89,310.09,337.89,311Zm7.62-8.26,1.54,0,1.19,0,1.17,0c.39,0,.58.18.58.54a.51.51,0,0,1-.52.54c-.27,0-1.07,0-2.42,0h-1.31a23.51,23.51,0,0,0,1.55,4.57,11.64,11.64,0,0,0,1.37-1.55.5.5,0,0,1,.43-.25.52.52,0,0,1,.38.16.48.48,0,0,1,.17.38.67.67,0,0,1-.08.3,7.6,7.6,0,0,1-1.1,1.41c-.61.63-1.08.95-1.41.95a.47.47,0,0,1-.39-.27q-.11-.18-.42-.84a25.15,25.15,0,0,1-1.62-4.88c-1.1,0-1.93,0-2.48,0l-1.28,0v.05c0,.62.05,1.54.15,2.77s.14,2.14.14,2.74c0,.35-.19.52-.56.52a.49.49,0,0,1-.52-.46,13.14,13.14,0,0,1-.18-1.61c-.07-1-.11-2.29-.11-4,0-.18,0-.44,0-.79v-.79c0-2,.2-3.1.58-3.24a28.44,28.44,0,0,1,3.6-.9,20.2,20.2,0,0,1,3.65-.45c.38,0,.56.18.56.54s-.18.5-.54.53l-1.64.14a29.78,29.78,0,0,0-5,1.08c-.08.8-.12,1.72-.15,2.75l1.28,0,2.27,0c-.12-.6-.25-1.51-.4-2.72v-.05q0-.54.54-.54c.28,0,.46.17.54.52s.07.6.11.9C345.28,301.42,345.39,302.05,345.51,302.69Zm-5.1,7.45h8.14a.54.54,0,1,1,0,1.08h-8.14a.54.54,0,0,1,0-1.08Z" transform="translate(-66.36 -297)"/><path class="cls-3" d="M355.14,308.65a9.2,9.2,0,0,0,3.31,1.24,16.31,16.31,0,0,0,3.56.39h.2c-.29,0-.46-.16-.52-.5,0,0,0-.43-.05-1.22s-.05-1.59-.08-2.43a24,24,0,0,0-2.57,2l-1.17,1a.58.58,0,0,1-.36.16.54.54,0,0,1-.39-.17.57.57,0,0,1-.17-.39.61.61,0,0,1,.2-.4q.09-.11,1.08-1a26.64,26.64,0,0,1,2.61-2.07c-2.21-.16-3.31-1-3.31-2.39s1.33-2.2,4-2.2V300l-2.73-.09c-.3,0-.74,0-1.32,0a.49.49,0,0,1-.52-.54.49.49,0,0,1,.56-.54l1.29,0,2.72.09v-1.37c0-.35.18-.52.54-.52a.48.48,0,0,1,.54.54v1.39l2.86.09,1.5.07a.52.52,0,0,1,.5.54q0,.56-.54.54h0l-4.29-.16v.77q4.32.27,4.32,2.45c0,1.33-1.23,2-3.69,2.12l1.84,1.33a18.36,18.36,0,0,0,1.89,1.25c.09.06.24.13.43.23a.57.57,0,0,1,.29.47.56.56,0,0,1-.16.39.48.48,0,0,1-.37.17,7.42,7.42,0,0,1-2.19-1.26l-2.27-1.62c0,.75.05,1.49.07,2.21,0,.88.06,1.28.06,1.21,0,.36-.17.54-.49.55a18,18,0,0,0,5.2-.9l.2,0c.35,0,.52.18.52.56a.49.49,0,0,1-.36.48,7.23,7.23,0,0,1-.93.29,17.72,17.72,0,0,1-4.9.68,18.6,18.6,0,0,1-3.89-.45,10,10,0,0,1-3.6-1.38,10.77,10.77,0,0,1-1.54,1.76.62.62,0,0,1-.36.16.5.5,0,0,1-.39-.17.5.5,0,0,1-.17-.38.61.61,0,0,1,.21-.43c.15-.14.37-.37.69-.71a14.73,14.73,0,0,0,1.73-2.46,10.3,10.3,0,0,0,1.11-2.78,19.25,19.25,0,0,0-2.28-.14H353l-.49,0c-.35,0-.52-.18-.52-.54s.19-.5.58-.56h.92a13.47,13.47,0,0,1,3,.23c.31.1.47.29.45.56v0A9.91,9.91,0,0,1,355.14,308.65Zm-.26-9.2a1.29,1.29,0,0,1,1,.47,1.41,1.41,0,0,1,.45,1,1.3,1.3,0,0,1-.44,1,1.47,1.47,0,0,1-1.06.4,1.35,1.35,0,0,1-1-.46,1.56,1.56,0,0,1-.41-1.05,1.24,1.24,0,0,1,.49-.94A1.52,1.52,0,0,1,354.88,299.45Zm6.65,4.84c0-.79,0-1.61,0-2.47h0c-1.93,0-2.89.38-2.89,1.12S359.55,304.27,361.53,304.29Zm1-2.41c0,.84,0,1.64,0,2.41a6.78,6.78,0,0,0,2.72-.38.75.75,0,0,0,.47-.68C365.79,302.48,364.72,302,362.57,301.88Z" transform="translate(-66.36 -297)"/><path class="cls-3" d="M373.77,303.73c-.6,0-1.29-.08-2.06-.14-.2,0-.51,0-.91-.07a.48.48,0,0,1-.49-.53c0-.38.17-.56.52-.54h.06l2.88.2-.09-3.15c-.56,0-1.37-.12-2.45-.27a.51.51,0,0,1-.47-.54c0-.36.17-.54.52-.54a44.17,44.17,0,0,1,4.5.54l1.5.25a.52.52,0,0,1,.43.53c0,.37-.18.55-.52.55a7.6,7.6,0,0,1-1.17-.16l-1.26-.21.09,3.06c.84,0,1.63.05,2.39.05a.54.54,0,1,1,0,1.08c-.73,0-1.5,0-2.3,0a17.23,17.23,0,0,1,2.61,3.38.65.65,0,0,1,.1.32.51.51,0,0,1-.17.4.52.52,0,0,1-.38.16.6.6,0,0,1-.44-.23c-.06-.07-.24-.34-.56-.79s-.64-.93-1.18-1.66l.18,5.67a.54.54,0,0,1-1.08,0l-.18-5.66a24.63,24.63,0,0,0-1.37,2.36l-.5,1a.55.55,0,0,1-.47.31.62.62,0,0,1-.41-.16.48.48,0,0,1-.17-.37.63.63,0,0,1,.07-.25A19.55,19.55,0,0,1,373.77,303.73Zm7.39-1.35-2.34-1.44c-.24.24-.61.58-1.11,1a.53.53,0,0,1-.36.16.58.58,0,0,1-.56-.56.5.5,0,0,1,.2-.39c.3-.29.75-.72,1.36-1.28s1.19-1.11,1.46-1.35a11.91,11.91,0,0,1,1.59-1.19.55.55,0,0,1,.3-.09.48.48,0,0,1,.37.17.59.59,0,0,1,.16.39.51.51,0,0,1-.2.41c2.06.65,3.09,1.23,3.09,1.73a.45.45,0,0,1-.14.31,31,31,0,0,1-3.67,3.36L379.69,305l-.81.68a.54.54,0,0,1-.34.14.51.51,0,0,1-.4-.17.52.52,0,0,1-.16-.38.53.53,0,0,1,.2-.4,11.08,11.08,0,0,1,.95-.81C379.59,303.66,380.26,303.11,381.16,302.38Zm1.8,1.82c.62.31,1.47.8,2.58,1.46a.53.53,0,0,1,.25.45.56.56,0,0,1-.15.36,25.51,25.51,0,0,1-2.06,2.21,32.52,32.52,0,0,1-3.62,3.13.54.54,0,0,1-.34.13.52.52,0,0,1-.38-.17.57.57,0,0,1-.16-.41.57.57,0,0,1,.21-.41l.87-.67c.58-.49,1.16-1,1.72-1.49q-1.44-.84-2.34-1.44c-.52.55-.87.83-1,.83a.54.54,0,0,1-.39-.17.57.57,0,0,1-.17-.39.56.56,0,0,1,.16-.38l.7-.7c.26-.28.63-.68,1.14-1.21a18.27,18.27,0,0,1,2.61-2.19.59.59,0,0,1,.32-.11.52.52,0,0,1,.38.17.53.53,0,0,1,.16.39C383.43,303.77,383.27,304,383,304.2Zm-3.33-4,2.42,1.47c.63-.55,1.18-1.08,1.65-1.58-.23-.11-1.15-.45-2.77-1C380.56,299.33,380.13,299.71,379.63,300.17Zm3.06,7.85q.88-.87,1.71-1.77c-.8-.49-1.59-.93-2.37-1.33a17.64,17.64,0,0,0-1.73,1.62C381,307,381.78,307.48,382.69,308Z" transform="translate(-66.36 -297)"/><path class="cls-3" d="M393.57,309.83l0-.91-2.95.16c-.35,0-.53-.17-.53-.54a.48.48,0,0,1,.51-.54l2.93-.16,0-.47q-3.42-.27-3.42-2.61,0-2.85,3.26-2.92l0-.48-4.21-.2a.49.49,0,0,1-.5-.54c0-.39.18-.57.56-.54l4.14.2-.06-1.52-2.09-.27-1-.1a.51.51,0,0,1-.48-.54c0-.38.17-.56.52-.54h.07q.81,0,4.5.57c.85.12,1.57.24,2.16.34l.79.15c.33.09.49.27.49.52s-.17.56-.52.56a12.15,12.15,0,0,1-1.62-.24l-1.73-.3,0,1.4,4.33.22a.48.48,0,0,1,.53.54c0,.37-.2.55-.58.54l-4.25-.2v.47c2.4.23,3.6,1.23,3.6,3,0,1.63-1.14,2.46-3.44,2.49l0,.39,2.9-.16q.54,0,.54.54a.47.47,0,0,1-.5.54l-2.92.16,0,.85,1.77-.31a10.62,10.62,0,0,1,1.73-.2c.36,0,.54.2.54.58a.5.5,0,0,1-.45.5l-1,.15a58.58,58.58,0,0,1-7.6.77.54.54,0,1,1,0-1.08A35,35,0,0,0,393.57,309.83Zm-.11-3.54,0-1.15-2.27-.18C391.28,305.72,392,306.17,393.46,306.29ZM393.4,304l0-1.12c-1.11,0-1.79.34-2.05,1Zm1.05-1.08,0,1.17,2.36.2C396.58,303.56,395.78,303.1,394.45,303Zm.07,2.25,0,1.1c1.33,0,2.1-.32,2.32-.9Zm6.19-3.49c1.5.08,2.46.36,2.86.82a4.83,4.83,0,0,1,.78,3.19,27.75,27.75,0,0,1-.29,3.49c0,.31-.1.79-.2,1.42a.54.54,0,0,1-1.08-.07,19.18,19.18,0,0,1,.24-2.34,17.75,17.75,0,0,0,.25-2.5,4,4,0,0,0-.51-2.47c-.2-.24-.92-.39-2.16-.46-.21,2.13-.39,4.05-.52,5.74,0,.59-.1,1.45-.2,2.59a.48.48,0,0,1-.54.5c-.37,0-.55-.17-.54-.52v-.05c0-1.18.28-3.94.72-8.3.1,0-.52,0-1.87,0a.49.49,0,0,1-.54-.56c0-.35.18-.52.54-.52l2,0,.25-2.41c0-.25.06-.63.13-1.12a.5.5,0,0,1,.52-.47c.39,0,.57.18.56.53l0,.07Z" transform="translate(-66.36 -297)"/></svg>