<?xml version="1.0" encoding="utf-8"?>
<!-- Generator: Adobe Illustrator 23.0.3, SVG Export Plug-In . SVG Version: 6.00 Build 0)  -->
<svg version="1.1" id="图层_1" xmlns="http://www.w3.org/2000/svg" xmlns:xlink="http://www.w3.org/1999/xlink" x="0px" y="0px"
	 viewBox="0 0 343.6 192" style="enable-background:new 0 0 343.6 192;" xml:space="preserve">
<style type="text/css">
	.st0{fill:#FFFFFF;stroke:#231815;stroke-miterlimit:10;}
	.st1{fill:#BBBCBC;stroke:#231815;stroke-miterlimit:10;}
	.st2{enable-background:new    ;}
	.st3{fill:#231815;}
</style>
<g id="レイヤー_1">
	<title>gamepad</title>
	<circle class="st0" cx="209.8" cy="166.8" r="24.8"/>
	<circle class="st1" cx="133.3" cy="166.8" r="24.8"/>
	<polygon class="st1" points="32,146.5 36.5,151 63.5,151 68,146.5 68,128.5 54.5,110.5 45.5,110.5 32,128.5 	"/>
	<polygon class="st1" points="5,119.5 0.5,115 0.5,88 5,83.5 23,83.5 41,97 41,106 23,119.5 	"/>
	<polygon class="st1" points="95,119.5 99.5,115 99.5,88 95,83.5 77,83.5 59,97 59,106 77,119.5 	"/>
	<circle class="st0" cx="324.5" cy="101.5" r="18"/>
	<polygon class="st1" points="32,56.5 36.5,52 63.5,52 68,56.5 68,74.5 54.5,92.5 45.5,92.5 32,74.5 	"/>
	<circle class="st0" cx="293" cy="70" r="18"/>
	<circle class="st0" cx="293" cy="133" r="18"/>
	<circle class="st1" cx="261.5" cy="101.5" r="18"/>
	<circle class="st1" cx="133.3" cy="166.8" r="20.3"/>
	<circle class="st0" cx="209.8" cy="166.8" r="20.3"/>
	<polygon class="st1" points="262.1,22.2 266.6,17.7 338.6,17.7 343.1,22.2 343.1,40.2 338.6,44.7 325.1,44.7 320.6,40.2 
		266.6,40.2 262.1,35.7 	"/>
	<polygon class="st0" points="82.1,22.5 77.6,18 5.6,18 1.1,22.5 1.1,40.5 5.6,45 19.1,45 23.6,40.5 77.6,40.5 82.1,36 	"/>
</g>
<g>
	<g class="st2">
		<path class="st3" d="M77.9,131.7l5.8-1.3l0.4,1.7l-2,0.4l-0.1,2.5l1.6-0.2l0.1,1.7l-1.8,0.2l0,1.9l2.1,1.1l-0.8,1.5l-1.4-0.7
			l-0.1,5.1l-1.7,0l0.1-5.6l-1.1,4.6l-1.7-0.4l1.7-7.2l-1.5,0.1l-0.2-1.7l2.8-0.3l0.1-2.3l-2.1,0.5L77.9,131.7z M83.4,133.4l5.2-3.6
			l1,1.4l-0.6,0.4l2.6,1.7l0,1.5l-3.2,2l0.3,0.4l-1.5,0.9l-0.3-0.4l-1.8,1.1l-0.9-1.5l1.8-1.1l-1-1.6l1.5-0.9l1,1.6l2-1.3l-2.1-1.3
			l-3.1,2.2L83.4,133.4z M84.4,140.9l6.3-5.1l1.1,1.4l-1.3,1l2.5,2.2l-0.2,1.4l-7.6,4l-0.8-1.5l3.2-1.7l-0.9-1.4l-1.3,1L84.4,140.9z
			 M89.2,139.3l-1,0.8l1.1,1.7l1.7-0.9L89.2,139.3z"/>
		<path class="st3" d="M100.2,136.8l-2.2,6.3l2.5-0.3l-0.4-1.8l1.7-0.4l1,4.5l-1.7,0.4l-0.2-1l-4.1,0.4l-0.9-1.1l2.4-7l-2.3,0.1
			l-0.1-1.7l6.9-0.3l0.1,1.7L100.2,136.8z M102.2,132.9l-5.4-0.3l0.1-1.7l5.4,0.3L102.2,132.9z M107.4,145.5l-0.7-1.6l2.9-1.2
			l-0.5-8.8l-1.8,0.2l-2.3,11.4l-1.7-0.3l2.2-10.8l-1.5,0.2l-0.2-1.7l2.1-0.3l0.5-2.5l1.7,0.3l-0.4,1.9l2.2-0.3l1,0.8l0.6,10.4
			l-0.5,0.8L107.4,145.5z"/>
	</g>
	<g class="st2">
		<path class="st3" d="M208.4,85.2l1.8-2.3l-1.9,0.1l-0.1-1.7l1.8-0.1l-0.1-0.9l-0.8,0.1l-0.1-1.7l0.8-0.1l-0.5-4.4l0.8-1h0.8l1-2
			l1.6,0.8l-0.6,1.3h2.6l0.9,0.8l0.2,11.4l-1.2,0.8l-2.9-1.1l0.6-1.6l1.7,0.6l0-1.5l-2.2,0.1l-2.7,3.5L208.4,85.2z M210.9,74.9
			l0.1,0.9l3.4-0.3v-0.6H210.9z M211.5,80.1l0.1,1l3-0.2l-0.1-3.7l-3.3,0.3l0.1,0.9l2.5-0.2l0.2,1.7L211.5,80.1z M216.5,78.5
			l1.6-0.6l1.4,3.9l-1.6,0.6L216.5,78.5z M222.1,76.5L222,84l-0.5,0.7l-3.3,1.8l-0.8-1.5l2.8-1.5l0.1-7.1l-3.4-0.4l0.2-1.7l3.3,0.4
			l0.1-2.7l1.7,0l-0.1,2.8l1.3,0.1l-0.2,1.7L222.1,76.5z"/>
		<path class="st3" d="M234.8,78.8l0.1,5.5l4.8-0.1l0.5-3.7l1.7,0.3l-0.8,6l-1.7-0.2l0.1-0.6L228,86.2l-0.9-0.7l-0.7-4.9l1.7-0.2
			l0.6,4.1l4.5-0.1l-0.1-5.4l-6.2,0.3l-0.1-1.7l6.3-0.3l-0.1-2.6l-5.2-0.2l0.1-1.7l5,0.2l0-1.9l1.7-0.1l0.1,2.1l5.6,0.2l-0.1,1.7
			l-5.5-0.2l0.1,2.4l6.5-0.4l0.1,1.7L234.8,78.8z"/>
	</g>
	<g class="st2">
		<path class="st3" d="M268.4,2.2l5.3-1.6l0.5,1.6l-2.4,0.8l0.5,12.5l-1.7,0.1l-0.5-12l-1.2,0.4L268.4,2.2z M273.1,14.5l0.4-11
			l0.6-0.8l8.2-1.9l0.4,1.6l-3.2,0.8l0.6,3.5l2.6-0.4l0.2,1.7l-2.6,0.4l0.6,3.3l2.7,2.2l-1.1,1.3l-2.9-2.4l-0.3-0.5l-0.6-3.7
			L275,9.1l-0.1,3.6l1.5-1.3l1.2,0.2l1.6,2.4l-1.4,0.9l-1-1.6l-2.3,1.8L273.1,14.5z M275,7.3l3.5-0.5l-0.6-3.3l-2.8,0.7L275,7.3z"/>
		<path class="st3" d="M286.6,14l2.3-2.2l0.3-4.6l-2.2-0.6l0.4-1.6l2.9,0.8l0.6,0.9l-0.4,5.6l-0.1,0.2l10.4,1.2l-0.2,1.6L289,14
			l-1.3,1.3L286.6,14z M287.6,2.1l1.4-0.9l1.8,2.6l-1.4,0.9L287.6,2.1z M291.4,11.1l1.7-1.9l-0.3,0l-0.9-0.8l-0.2-3.3l0.8-0.9
			l2.7-0.1l0-0.7l-3.7,0.2l-0.1-1.7l3.8-0.2l0-1.1l1.7-0.1l0,1l3.8-0.2l0.1,1.7l-3.8,0.2l0,0.7L300,4l0.9,0.9l-0.3,2.8l-0.7,0.7
			L297,8.8l0.2,4l-1.7,0l-0.1-3.6l-2.7,3L291.4,11.1z M293.5,7.5l1.3-0.2l0.5-0.1l-0.1-1.4l-1.9,0.1L293.5,7.5z M296.9,5.8l0.1,1.3
			l2-0.2l0.1-1.1L296.9,5.8z M297.3,10l1.1-1.2l2.5,2.3l-1.1,1.2L297.3,10z"/>
		<path class="st3" d="M304.4,2.2l5.6-1.2l0.4,1.6L308.4,3l-0.1,2.4l1.6-0.2l0.1,1.7l-1.7,0.2l0,1.8l2.1,1l-0.8,1.5l-1.3-0.7l-0.1,5
			l-1.7,0l0.1-5.4l-1.1,4.4l-1.6-0.4l1.7-6.9l-1.4,0.1L304,5.9l2.7-0.2l0.1-2.2l-2,0.4L304.4,2.2z M309.7,3.8l5-3.5l1,1.4L315.1,2
			l2.5,1.6l0,1.4L314.5,7l0.2,0.4l-1.4,0.9l-0.2-0.4L311.4,9l-0.9-1.4l1.7-1.1l-0.9-1.5l1.4-0.9l0.9,1.5l2-1.2l-2-1.3l-3,2.1
			L309.7,3.8z M310.6,11l6.1-4.9l1,1.3l-1.2,1l2.4,2.1l-0.2,1.4l-7.3,3.9l-0.8-1.5l3-1.6l-0.9-1.3l-1.3,1L310.6,11z M315.2,9.4
			l-1,0.8l1,1.6l1.7-0.9L315.2,9.4z"/>
		<path class="st3" d="M325.8,7l-2.1,6.1l2.4-0.2l-0.4-1.8l1.6-0.4l1,4.3l-1.6,0.4l-0.2-0.9l-3.9,0.4l-0.9-1.1l2.3-6.7l-2.2,0.1
			l-0.1-1.7l6.7-0.3l0.1,1.7L325.8,7z M327.7,3.3l-5.2-0.2l0.1-1.7l5.2,0.2L327.7,3.3z M332.8,15.4l-0.6-1.5l2.8-1.2l-0.5-8.5
			l-1.8,0.2l-2.2,11l-1.6-0.3l2.1-10.4l-1.5,0.2l-0.2-1.6l2.1-0.3l0.5-2.4l1.6,0.3L333,2.7l2.1-0.3l0.9,0.8l0.6,10l-0.5,0.8
			L332.8,15.4z"/>
	</g>
</g>
</svg>
